# xmcd
#
# Track frame offsets: 
#        150
#        22871
#        39740
#        58435
#        77133
#        97074
#        114976
#        135376
#        152510
#        170704
#        187114
#        201285
#        218690
#        236662
#        255627
#        277602
#        291279
#        310949
#        328354
#
# Disc length: 4672 seconds
#
# Revision: 2
# Processed by: cddbd v1.5.2PL0 Copyright (c) Steve Scherf et al.
# Submitted via: ExactAudioCopyFreeDBPlugin 1.0
#
DISCID=18123e13
DTITLE=Various Artist - The Very Best Of Late Night Moves [Disc 2]
DYEAR=2007
DGENRE=Pop
TTITLE0=Sinead O'Connor - Nothing Compares 2 U
TTITLE1=Shakespear's Sister - Stay
TTITLE2=Martika - Love... Thy Will Be Done
TTITLE3=Sophie B. Hawkins - Damn I Wish I Was Your Lover
TTITLE4=Lisa Stansfield - All Around The World
TTITLE5=Tina Turner - Private Dancer
TTITLE6=Lisa Edwards - Cry
TTITLE7=Texas - Say What You Want
TTITLE8=Aqua - Turn Back Time
TTITLE9=Vanessa Williams - Save The Best For Last
TTITLE10=Edie Brickell and New Bohemians - Circle
TTITLE11=Leonardo's Bride - Even When I'm Sleeping
TTITLE12=Madasun - Don't You Worry
TTITLE13=Jann Arden - Insensitive
TTITLE14=Sam Brown - Stop
TTITLE15=Yazoo - Only You
TTITLE16=Cyndi Lauper - All Through The Night
TTITLE17=Groove Theory - Tell Me
TTITLE18=Des'ree - I'm Kissing You
EXTD=
EXTT0=
EXTT1=
EXTT2=
EXTT3=
EXTT4=
EXTT5=
EXTT6=
EXTT7=
EXTT8=
EXTT9=
EXTT10=
EXTT11=
EXTT12=
EXTT13=
EXTT14=
EXTT15=
EXTT16=
EXTT17=
EXTT18=
PLAYORDER=
